<svg width="36" height="36" viewBox="0 0 36 36" fill="none" xmlns="http://www.w3.org/2000/svg">
<path d="M16.7827 24.8148C16.6699 24.7027 16.5806 24.5693 16.5198 24.4224C16.459 24.2754 16.4281 24.1179 16.4287 23.9589V22.2169C16.4287 21.896 16.5562 21.5881 16.7831 21.3612C17.01 21.1343 17.3178 21.0068 17.6387 21.0068C17.9596 21.0068 18.2674 21.1343 18.4943 21.3612C18.7213 21.5881 18.8487 21.896 18.8487 22.2169V23.9589C18.8489 24.1983 18.778 24.4323 18.6451 24.6315C18.5121 24.8306 18.3231 24.9859 18.1019 25.0775C17.8807 25.1692 17.6373 25.1931 17.4024 25.1464C17.1676 25.0996 16.9519 24.9842 16.7827 24.8148V24.8148Z" fill="white"/>
<path d="M26.534 15.176H23.234V11.592C23.234 10.109 22.6448 8.68652 21.5961 7.63782C20.5474 6.58911 19.1251 6 17.642 6C16.1589 6 14.7366 6.58911 13.6879 7.63782C12.6392 8.68652 12.05 10.109 12.05 11.592C12.05 11.8785 12.1638 12.1532 12.3663 12.3557C12.5689 12.5583 12.8436 12.672 13.13 12.672C13.4164 12.672 13.6911 12.5583 13.8937 12.3557C14.0962 12.1532 14.21 11.8785 14.21 11.592C14.21 10.6817 14.5716 9.80851 15.2154 9.16479C15.8591 8.52108 16.7321 8.15955 17.6425 8.15955C18.5528 8.15955 19.4259 8.52108 20.0696 9.16479C20.7134 9.80851 21.075 10.6817 21.075 11.592V15.176H8.745C8.01731 15.1766 7.31958 15.4658 6.80493 15.9802C6.29029 16.4947 6.00079 17.1924 6 17.92V26.62C6.00132 27.7804 6.46289 28.8929 7.28345 29.7135C8.10401 30.5341 9.21654 30.9956 10.377 30.9969H24.9C26.0604 30.9956 27.173 30.5341 27.9935 29.7135C28.8141 28.8929 29.2757 27.7804 29.277 26.62V17.92C29.2762 17.1927 28.987 16.4954 28.4728 15.981C27.9586 15.4666 27.2613 15.1771 26.534 15.176V15.176ZM27.057 26.6219C27.0565 27.1939 26.8291 27.7422 26.4247 28.1466C26.0203 28.551 25.4719 28.7785 24.9 28.7791H10.377C9.80516 28.7783 9.25697 28.5507 8.85263 28.1464C8.44829 27.742 8.22079 27.1938 8.22 26.6219V17.922C8.22207 17.7838 8.27797 17.6517 8.37582 17.5541C8.47368 17.4564 8.60575 17.4009 8.74399 17.399H26.534C26.6721 17.4009 26.8041 17.4565 26.9018 17.5542C26.9995 17.6519 27.0552 17.7839 27.057 17.922V26.6219Z" fill="white"/>
</svg>
